<?xml version="1.0" encoding="utf-8"?>
<!-- Generator: Adobe Illustrator 25.0.0, SVG Export Plug-In . SVG Version: 6.00 Build 0)  -->
<svg version="1.1" xmlns="http://www.w3.org/2000/svg" xmlns:xlink="http://www.w3.org/1999/xlink" x="0px" y="0px"
	 viewBox="0 0 1000 1000" style="enable-background:new 0 0 1000 1000;" xml:space="preserve">
<style type="text/css">
	.st0{fill:#005458;}
</style>
<g id="Your_design">
</g>
<g id="Guides">
	<g>
		<g>
			<path class="st0" d="M484.5,248.62V240c-5.22,0.2-43.22,2.46-67.54,26.79c-26.23,26.23-26.83,68.19-26.83,68.19
				s41.99-0.58,68.22-26.82C477.25,289.26,483.01,262.27,484.5,248.62z"/>
		</g>
		<g>
			<g>
				<path class="st0" d="M484.43,550.31l0.07-2.47l-1.29,0.05c-11.65,0.45-96.51,5.5-150.81,59.83
					C273.81,666.3,272.47,760,272.47,760s93.65-1.71,152.24-60.29C476.99,647.43,483.59,568.61,484.43,550.31z"/>
			</g>
		</g>
		<g>
			<g>
				<path class="st0" d="M484.5,387.79l0-13.61c-8.23,0.32-68.18,3.89-106.54,42.27c-41.39,41.39-42.37,107.57-42.37,107.57
					s66.27-0.92,107.65-42.29C473.04,451.9,482.14,409.32,484.5,387.79z"/>
			</g>
		</g>
		<g>
			<g>
				<g>
					<path class="st0" d="M515.5,248.62V240c5.22,0.2,43.22,2.46,67.54,26.79c26.23,26.23,26.83,68.19,26.83,68.19
						s-41.99-0.58-68.22-26.82C522.75,289.26,516.99,262.27,515.5,248.62z"/>
				</g>
			</g>
		</g>
		<g>
			<g>
				<path class="st0" d="M515.57,550.31l-0.07-2.47l1.29,0.05c11.65,0.45,96.51,5.5,150.81,59.83
					C726.19,666.3,727.53,760,727.53,760s-93.65-1.71-152.24-60.29C523.01,647.43,516.41,568.61,515.57,550.31z"/>
			</g>
		</g>
		<g>
			<g>
				<path class="st0" d="M515.5,387.79l0-13.61c8.23,0.32,68.18,3.89,106.54,42.27c41.39,41.39,42.37,107.57,42.37,107.57
					s-66.27-0.92-107.65-42.29C526.96,451.9,517.86,409.32,515.5,387.79z"/>
			</g>
		</g>
	</g>
</g>
</svg>
